<svg width="627" height="513" viewBox="0 0 627 513" fill="none" xmlns="http://www.w3.org/2000/svg">
<g clip-path="url(#clip0_11_1543)">
<path d="M3.83498 321.692H20.4003C22.0219 321.692 23.4652 322.713 24.0085 324.236L82.0965 486.549C83.4343 490.285 86.9777 492.781 90.9426 492.781H96.7158C100.656 492.781 104.184 490.317 105.538 486.614L165.012 324.212C165.563 322.705 167.007 321.7 168.612 321.7H186.288C188.972 321.7 190.821 324.382 189.872 326.894L121.527 506.954C120.141 510.601 116.646 513.016 112.738 513.016H75.7639C71.8313 513.016 68.3204 510.569 66.9501 506.89L0.242993 326.854C-0.681356 324.35 1.16734 321.692 3.83498 321.692Z" fill="#F7F7F7"/>
<path d="M202.927 379.91V394.181C202.927 396.134 204.508 397.714 206.462 397.714H232.449C234.404 397.714 235.985 399.295 235.985 401.248V509.143C235.985 511.096 237.566 512.676 239.52 512.676H253.799C255.753 512.676 257.334 511.096 257.334 509.143V379.902C257.334 377.949 255.753 376.369 253.799 376.369H206.454C204.5 376.369 202.919 377.949 202.919 379.902L202.927 379.91Z" fill="#F7F7F7"/>
<path d="M239.827 357.008C230.154 357.008 222.313 349.172 222.313 339.504C222.313 329.836 230.154 322 239.827 322C249.501 322 257.341 329.836 257.341 339.504C257.341 349.172 249.501 357.008 239.827 357.008Z" fill="#F7F7F7"/>
<path d="M438.749 382.333C438.749 415.915 412.267 442.107 374.385 442.107H313.775C311.545 442.107 309.745 443.914 309.745 446.135V508.664C309.745 510.893 307.937 512.692 305.715 512.692H291.85C289.62 512.692 287.82 510.885 287.82 508.664V326.027C287.82 323.799 289.628 322 291.85 322H374.677C412.834 322 438.757 349.326 438.757 382.341L438.749 382.333ZM374.109 421.329C400.307 421.329 416.54 403.97 416.54 382.333C416.54 360.696 400.023 343.345 374.109 343.345H313.783C311.553 343.345 309.753 345.152 309.753 347.373V417.301C309.753 419.53 311.561 421.329 313.783 421.329H374.109Z" fill="#F7F7F7"/>
<path d="M469.228 508.34V326.343C469.228 323.945 471.174 321.991 473.582 321.991H563.495C600.226 321.991 624.721 343.621 624.721 375.218C624.721 394.286 616.459 408.233 603.08 416.774V417.342C619.029 419.903 626.999 431.005 626.999 448.939V508.34C626.999 510.739 625.053 512.692 622.645 512.692H609.704C607.304 512.692 605.35 510.747 605.35 508.34V452.918C605.35 442.674 599.658 437.545 588.834 437.545H495.507C493.107 437.545 491.153 439.49 491.153 441.896V508.34C491.153 510.739 489.207 512.692 486.799 512.692H473.574C471.174 512.692 469.22 510.747 469.22 508.34H469.228ZM491.161 412.139C491.161 414.538 493.107 416.491 495.515 416.491H562.36C586.847 416.491 602.512 400.834 602.512 380.056C602.512 359.277 586.563 343.337 562.644 343.337H495.515C493.115 343.337 491.161 345.282 491.161 347.689V412.139Z" fill="#F7F7F7"/>
<path d="M291.973 248.773C281.335 248.562 271.921 244.867 264.194 237.087C240.015 212.743 215.665 188.577 191.446 164.274C183.054 155.854 183.094 153.236 191.47 144.768C200.86 135.27 210.322 125.829 219.809 116.428C229.539 106.785 232.206 106.817 242.212 116.793C270.372 144.881 298.97 172.556 326.409 201.333C338.904 214.437 351.942 211.698 362.264 201.025C389.07 173.318 416.654 146.356 443.947 119.111C446.306 116.753 448.617 114.281 451.269 112.295C455.923 108.803 460.974 108.349 465.345 112.62C477.28 124.289 489.143 136.048 500.778 148.017C505.205 152.564 504.021 157.442 499.829 161.705C494.081 167.548 488.291 173.35 482.494 179.152C463.82 197.832 444.896 216.276 426.546 235.272C417.441 244.697 406.576 248.797 393.983 248.976C376.988 249.219 308.968 249.105 291.973 248.765V248.773Z" fill="#88DEA6"/>
<path d="M334.326 4.16964L273.374 65.0886C267.823 70.6364 267.823 79.6312 273.374 85.179L334.326 146.098C339.877 151.646 348.877 151.646 354.428 146.098L415.38 85.179C420.931 79.6312 420.931 70.6364 415.38 65.0886L354.428 4.16964C348.877 -1.37818 339.877 -1.37818 334.326 4.16964Z" fill="#88DEA6"/>
</g>
<defs>
<clipPath id="clip0_11_1543">
<rect width="627" height="513" fill="white"/>
</clipPath>
</defs>
</svg>
